<?xml version="1.0" standalone="no"?>
<!DOCTYPE svg PUBLIC "-//W3C//DTD SVG 20010904//EN"
 "http://www.w3.org/TR/2001/REC-SVG-20010904/DTD/svg10.dtd">
<svg version="1.0" xmlns="http://www.w3.org/2000/svg"
 width="210.000000pt" height="88.000000pt" viewBox="0 0 210.000000 88.000000"
 preserveAspectRatio="xMidYMid meet">

<g transform="translate(0.000000,88.000000) scale(0.100000,-0.100000)"
fill="#000000" stroke="none">
<path d="M900 569 c-14 -26 3 -49 35 -49 12 0 28 6 34 14 18 21 -3 56 -34 56
-14 0 -29 -8 -35 -21z"/>
<path d="M440 431 l0 -121 34 0 c34 0 35 1 38 43 l3 42 23 -42 c20 -39 26 -43
61 -43 l40 0 -25 44 -25 44 26 26 c30 30 32 65 6 97 -17 21 -30 24 -100 27
l-81 4 0 -121z m124 44 c6 -16 -28 -40 -44 -30 -6 3 -10 15 -10 26 0 23 45 27
54 4z"/>
<path d="M681 474 c-31 -39 -29 -107 4 -139 26 -27 54 -31 86 -15 13 7 19 7
19 0 0 -5 16 -10 35 -10 l35 0 0 95 0 95 -35 0 c-21 0 -35 -5 -35 -12 0 -9 -3
-9 -12 0 -22 22 -75 14 -97 -14z m107 -60 c4 -25 -20 -47 -42 -38 -16 6 -22
45 -9 58 14 14 48 1 51 -20z"/>
<path d="M900 405 l0 -95 35 0 35 0 0 95 0 95 -35 0 -35 0 0 -95z"/>
<path d="M1021 474 c-31 -39 -29 -107 4 -139 26 -27 54 -31 86 -15 13 7 19 7
19 0 0 -5 16 -10 35 -10 l35 0 0 95 0 95 -35 0 c-21 0 -35 -5 -35 -12 0 -9 -3
-9 -12 0 -22 22 -75 14 -97 -14z m107 -60 c4 -25 -20 -47 -42 -38 -16 6 -22
45 -9 58 14 14 48 1 51 -20z"/>
<path d="M1240 405 l0 -95 35 0 34 0 3 63 c3 59 4 62 28 62 24 0 25 -3 28 -62
l3 -63 34 0 35 0 0 66 c0 63 -11 101 -34 116 -17 12 -61 9 -75 -4 -11 -10 -14
-10 -18 0 -3 6 -20 12 -39 12 l-34 0 0 -95z"/>
<path d="M1495 475 c-19 -18 -25 -35 -25 -67 1 -63 36 -98 98 -98 33 0 82 34
82 57 0 13 -9 15 -55 9 -35 -4 -55 -2 -55 4 0 6 26 10 60 10 58 0 60 1 60 26
0 15 -12 38 -29 55 -39 39 -100 41 -136 4z m83 -43 c2 -7 -6 -12 -17 -12 -21
0 -27 11 -14 24 9 9 26 2 31 -12z"/>
</g>
</svg>
